<svg width="56" height="32" viewBox="0 0 56 32" fill="none" xmlns="http://www.w3.org/2000/svg">
<g clip-path="url(#clip0_1132_91)">
<path fill-rule="evenodd" clip-rule="evenodd" d="M14.3338 0.0184607L10.3467 0.0425659L10.3729 1.54226L10.3991 3.04195L15.9349 3.08813L21.4706 3.1343L22.1082 3.4266C22.8816 3.78104 23.5583 4.36535 23.8577 4.93691C24.1604 5.51512 24.3072 6.59212 24.1841 7.33204C23.9823 8.54406 23.1243 9.60315 21.9956 10.0334C21.5279 10.2116 21.2258 10.2392 19.2277 10.2855L16.9848 10.3377V11.8153V13.293L19.0941 16.2482C20.2542 17.8736 21.6966 19.8891 22.2994 20.7272L23.3953 22.251L25.3678 22.276C26.4528 22.2897 27.3404 22.266 27.3404 22.2231C27.3404 22.1398 26.7101 21.2362 25.9733 20.2633C25.2227 19.2722 23.2879 16.6867 22.4503 15.5556C22.0177 14.9714 21.4527 14.2234 21.1947 13.8932L20.7257 13.293L21.4207 13.2188C24.0971 12.9332 26.342 11.1693 27.1091 8.74927C27.4142 7.7866 27.4987 6.66388 27.3415 5.66159C27.1943 4.72358 26.8187 3.52107 26.6239 3.36472C26.5456 3.30174 26.4814 3.20791 26.4814 3.15628C26.4814 3.10466 26.2439 2.77783 25.9534 2.43013C25.2258 1.55861 24.0681 0.833092 22.7591 0.428132C21.4466 0.0221552 20.5934 -0.0194034 14.3338 0.0184607ZM46.4769 0.0565111C44.0985 0.451128 42.4796 1.35885 41.43 2.88643C40.5474 4.17123 40.1336 6.19538 40.4431 7.71521C40.6347 8.65655 41.1254 9.64858 41.7112 10.2791C42.1704 10.7731 43.1952 11.4422 43.9954 11.7702C44.2578 11.8778 44.5585 12.0023 44.6635 12.0469C44.9345 12.1622 46.0309 12.537 47.9086 13.1561C49.9051 13.8144 50.4851 14.0708 51.0335 14.5379C51.757 15.1541 52.0812 16.1825 51.8676 17.1838C51.6349 18.2747 51.0172 19.0355 49.9439 19.5533C49.0295 19.9944 48.4044 20.1151 47.3407 20.0559C45.429 19.9495 43.8529 19.0551 42.5272 17.3248C42.2487 16.9612 41.9995 16.6638 41.9736 16.6638C41.9476 16.6638 41.4578 17.1074 40.885 17.6498C40.2205 18.2789 39.8438 18.7051 39.8441 18.8273C39.8444 18.9326 40.1236 19.3572 40.4646 19.7708C41.1044 20.5471 42.5381 21.7011 43.3732 22.1122C46.2909 23.5485 50.5083 23.2056 52.7763 21.3476C54.2028 20.1789 54.8918 18.7906 54.9869 16.8934C55.0892 14.8507 54.5974 13.464 53.3505 12.2788C52.3507 11.3286 51.3111 10.8431 47.8131 9.69236C45.4449 8.91337 44.581 8.51192 44.098 7.96585C43.4264 7.20663 43.3128 6.14071 43.7916 5.09289C44.1127 4.39056 44.5354 3.97092 45.29 3.60567C46.1512 3.18879 46.84 3.05802 47.903 3.10955C49.6144 3.19239 50.924 3.82749 52.0485 5.11986C52.3356 5.45001 52.6063 5.734 52.6498 5.75099C52.7263 5.78082 54.5094 4.18037 54.6675 3.93988C54.7717 3.78141 54.0258 2.7757 53.4008 2.23194C51.983 0.998495 50.0516 0.191621 48.2546 0.0819071C47.8018 0.0542941 47.324 0.0194765 47.1927 0.00451555C47.0615 -0.0104454 46.7394 0.0130136 46.4769 0.0565111ZM2.03263 0.257005C1.3922 0.532397 1.00336 1.17378 1.00002 1.96052C0.997162 2.62813 1.26392 3.10706 1.81168 3.41764C2.19049 3.63245 2.32459 3.6584 2.89611 3.62709C3.42859 3.598 3.61213 3.54434 3.89655 3.33443C4.60121 2.8144 4.83543 1.81793 4.43256 1.05381C4.04907 0.326452 2.82004 -0.0815551 2.03263 0.257005ZM32.8724 0.345571C32.3098 0.63343 32.0172 1.16907 32.0172 1.9112C32.0172 2.63367 32.2286 3.0462 32.7687 3.37765C33.1225 3.59477 33.3035 3.64187 33.7777 3.6402C34.4069 3.63799 35.0001 3.42844 35.2998 3.10235C35.5341 2.84755 35.7385 2.07808 35.676 1.6866C35.593 1.16704 35.2733 0.732523 34.7471 0.423884C34.1192 0.0556796 33.4903 0.0293603 32.8724 0.345571ZM1.25247 6.10497C1.21744 6.13877 1.18881 9.79588 1.18881 14.2319V22.2972H2.76363H4.33846V14.1703V6.04337H2.8273C1.99608 6.04337 1.2874 6.07108 1.25247 6.10497ZM10.436 6.24885C10.4301 6.36439 10.426 6.7083 10.427 7.01306C10.4281 7.31782 10.433 10.8815 10.4379 14.9322L10.4469 22.2972H12.0222H13.5976L13.5731 14.1934L13.5488 6.08955L11.9978 6.06415L10.4469 6.03876L10.436 6.24885ZM32.2717 6.10497C32.1922 6.1819 32.1866 21.9509 32.266 22.1511C32.3154 22.2759 32.5456 22.2972 33.8408 22.2972H35.3577V14.2263C35.3577 6.95192 35.3428 6.14995 35.2067 6.09943C35.0009 6.02305 32.3512 6.02795 32.2717 6.10497Z" fill="black"/>
<path d="M0.579559 31V26.6364H1.98794C2.2976 26.6364 2.55612 26.696 2.7635 26.8153C2.97231 26.9332 3.12927 27.0938 3.23439 27.2969C3.34092 27.5 3.39419 27.7287 3.39419 27.983C3.39419 28.2372 3.34163 28.4666 3.23652 28.6712C3.1314 28.8743 2.97515 29.0355 2.76777 29.1548C2.56038 29.2727 2.30257 29.3317 1.99433 29.3317H0.886378V28.9737H1.98367C2.21237 28.9737 2.402 28.9311 2.55257 28.8459C2.70314 28.7592 2.81535 28.6413 2.88921 28.4922C2.9645 28.343 3.00214 28.1733 3.00214 27.983C3.00214 27.7926 2.9645 27.6229 2.88921 27.4737C2.81535 27.3246 2.70242 27.2074 2.55044 27.1222C2.39987 27.0369 2.20882 26.9943 1.97728 26.9943H0.977997V31H0.579559ZM4.32956 31V26.6364H5.73794C6.0476 26.6364 6.30612 26.6925 6.5135 26.8047C6.72231 26.9155 6.87927 27.0696 6.98439 27.267C7.09092 27.4631 7.14419 27.6882 7.14419 27.9425C7.14419 28.1967 7.09092 28.4212 6.98439 28.6158C6.87927 28.8104 6.72302 28.9624 6.51563 29.0717C6.30825 29.1811 6.05115 29.2358 5.74433 29.2358H4.54475V28.8714H5.73367C5.96095 28.8714 6.14987 28.8338 6.30044 28.7585C6.45242 28.6832 6.56535 28.576 6.63921 28.4368C6.7145 28.2976 6.75214 28.1328 6.75214 27.9425C6.75214 27.7521 6.7145 27.5859 6.63921 27.4439C6.56393 27.3004 6.45029 27.1896 6.29831 27.1115C6.14774 27.0334 5.9574 26.9943 5.72728 26.9943H4.72799V31H4.32956ZM6.25356 29.0312L7.32742 31H6.8672L5.80399 29.0312H6.25356ZM8.11471 31V26.6364H10.646V26.9943H8.51315V28.6371H10.5117V28.995H8.51315V30.642H10.6886V31H8.11471ZM11.6772 26.6364H12.1374L13.7205 30.4375H13.7589L15.342 26.6364H15.8022V31H15.4272V27.478H15.3931L13.9208 31H13.5586L12.0863 27.478H12.0522V31H11.6772V26.6364ZM17.3608 26.6364V31H16.9624V26.6364H17.3608ZM21.4293 26.6364H21.8278V29.5256C21.8278 29.8224 21.7582 30.0881 21.619 30.3224C21.4798 30.5554 21.2859 30.7393 21.0373 30.8743C20.7901 31.0078 20.5025 31.0746 20.1744 31.0746C19.8477 31.0746 19.56 31.0071 19.3114 30.8722C19.0629 30.7372 18.869 30.5533 18.7298 30.3203C18.5906 30.0874 18.521 29.8224 18.521 29.5256V26.6364H18.9194V29.4979C18.9194 29.7294 18.9712 29.9361 19.0749 30.1179C19.1786 30.2983 19.3242 30.4403 19.5117 30.544C19.7006 30.6477 19.9215 30.6996 20.1744 30.6996C20.4272 30.6996 20.6481 30.6477 20.837 30.544C21.0259 30.4403 21.1715 30.2983 21.2738 30.1179C21.3775 29.9361 21.4293 29.7294 21.4293 29.4979V26.6364ZM22.9858 26.6364H23.446L25.0291 30.4375H25.0675L26.6506 26.6364H27.1108V31H26.7358V27.478H26.7017L25.2294 31H24.8672L23.3949 27.478H23.3608V31H22.9858V26.6364ZM29.9648 31H29.5472L31.1346 26.6364H31.5607L33.1481 31H32.7305L31.3626 27.1541H31.3327L29.9648 31ZM30.2653 29.3274H32.43V29.6854H30.2653V29.3274ZM33.896 31V26.6364H35.3043C35.614 26.6364 35.8725 26.696 36.0799 26.8153C36.2887 26.9332 36.4457 27.0938 36.5508 27.2969C36.6573 27.5 36.7106 27.7287 36.7106 27.983C36.7106 28.2372 36.658 28.4666 36.5529 28.6712C36.4478 28.8743 36.2915 29.0355 36.0842 29.1548C35.8768 29.2727 35.619 29.3317 35.3107 29.3317H34.2028V28.9737H35.3001C35.5288 28.9737 35.7184 28.9311 35.869 28.8459C36.0195 28.7592 36.1317 28.6413 36.2056 28.4922C36.2809 28.343 36.3185 28.1733 36.3185 27.983C36.3185 27.7926 36.2809 27.6229 36.2056 27.4737C36.1317 27.3246 36.0188 27.2074 35.8668 27.1222C35.7163 27.0369 35.5252 26.9943 35.2937 26.9943H34.2944V31H33.896ZM37.646 31V26.6364H39.0543C39.364 26.6364 39.6225 26.696 39.8299 26.8153C40.0387 26.9332 40.1957 27.0938 40.3008 27.2969C40.4073 27.5 40.4606 27.7287 40.4606 27.983C40.4606 28.2372 40.408 28.4666 40.3029 28.6712C40.1978 28.8743 40.0415 29.0355 39.8342 29.1548C39.6268 29.2727 39.369 29.3317 39.0607 29.3317H37.9528V28.9737H39.0501C39.2788 28.9737 39.4684 28.9311 39.619 28.8459C39.7695 28.7592 39.8817 28.6413 39.9556 28.4922C40.0309 28.343 40.0685 28.1733 40.0685 27.983C40.0685 27.7926 40.0309 27.6229 39.9556 27.4737C39.8817 27.3246 39.7688 27.2074 39.6168 27.1222C39.4663 27.0369 39.2752 26.9943 39.0437 26.9943H38.0444V31H37.646ZM40.957 31H40.5394L42.1268 26.6364H42.5529L44.1403 31H43.7227L42.3548 27.1541H42.3249L40.957 31ZM41.2575 29.3274H43.4222V29.6854H41.2575V29.3274ZM44.8881 31V26.6364H46.2965C46.6062 26.6364 46.8647 26.6925 47.0721 26.8047C47.2809 26.9155 47.4379 27.0696 47.543 27.267C47.6495 27.4631 47.7028 27.6882 47.7028 27.9425C47.7028 28.1967 47.6495 28.4212 47.543 28.6158C47.4379 28.8104 47.2816 28.9624 47.0742 29.0717C46.8668 29.1811 46.6097 29.2358 46.3029 29.2358H45.1033V28.8714H46.2923C46.5195 28.8714 46.7085 28.8338 46.859 28.7585C47.011 28.6832 47.1239 28.576 47.1978 28.4368C47.2731 28.2976 47.3107 28.1328 47.3107 27.9425C47.3107 27.7521 47.2731 27.5859 47.1978 27.4439C47.1225 27.3004 47.0089 27.1896 46.8569 27.1115C46.7063 27.0334 46.516 26.9943 46.2859 26.9943H45.2866V31H44.8881ZM46.8121 29.0312L47.886 31H47.4258L46.3626 29.0312H46.8121ZM48.6733 31V26.6364H51.2045V26.9943H49.0717V28.6371H51.0703V28.995H49.0717V30.642H51.2472V31H48.6733ZM52.2358 31V26.6364H52.6342V30.642H54.7138V31H52.2358Z" fill="black"/>
</g>
<defs>
<clipPath id="clip0_1132_91">
<rect width="56" height="32" fill="white"/>
</clipPath>
</defs>
</svg>
